<?xml version="1.0" standalone="no"?>
<!DOCTYPE svg PUBLIC "-//W3C//DTD SVG 20010904//EN"
 "http://www.w3.org/TR/2001/REC-SVG-20010904/DTD/svg10.dtd">
<svg version="1.0" xmlns="http://www.w3.org/2000/svg"
 width="500.000000pt" height="500.000000pt" viewBox="0 0 500.000000 500.000000"
 preserveAspectRatio="xMidYMid meet">
<metadata>
Created by potrace 1.14, written by Peter Selinger 2001-2017
</metadata>
<g transform="translate(0.000000,500.000000) scale(0.100000,-0.100000)"
fill="#000000" stroke="none">
<path d="M2746 3929 c-18 -14 -32 -43 -47 -95 -21 -71 -24 -75 -58 -83 -20 -6
-81 -12 -136 -16 -55 -3 -117 -8 -137 -11 -49 -7 -78 -43 -78 -95 0 -72 64
-109 203 -117 48 -2 87 -8 87 -12 0 -3 -14 -46 -31 -96 -17 -49 -32 -105 -34
-126 -3 -20 -41 -114 -86 -209 -46 -95 -101 -227 -125 -293 -47 -136 -59 -149
-147 -160 -104 -13 -137 -34 -137 -86 0 -31 46 -68 107 -86 33 -10 53 -20 50
-27 -36 -90 -217 -562 -226 -592 -7 -22 -28 -70 -47 -107 -53 -107 -75 -208
-54 -258 34 -83 214 -179 265 -142 30 22 78 129 111 246 14 50 52 176 85 279
32 103 59 198 59 211 0 12 11 37 24 55 32 43 95 214 107 293 13 87 33 111 98
119 28 4 69 14 91 23 22 9 51 16 64 16 37 0 241 48 296 70 28 11 64 20 81 20
44 0 96 25 104 50 4 12 5 22 3 24 -7 4 -476 -12 -555 -19 -83 -8 -83 -8 -83
16 0 23 29 100 83 220 24 52 54 145 151 461 26 83 42 121 57 128 11 6 76 18
145 26 206 24 558 108 604 144 14 11 64 40 111 65 87 46 169 108 158 119 -3 3
-71 -5 -150 -18 -187 -32 -282 -43 -519 -61 -107 -9 -215 -18 -240 -21 -45 -6
-45 -6 -59 31 -17 48 -68 105 -108 121 -43 19 -56 18 -87 -7z m-366 -1690
c-48 -139 -141 -361 -148 -355 -1 2 41 116 94 255 54 138 99 249 101 247 2 -2
-19 -68 -47 -147z"/>
</g>
</svg>
